# xmcd CD database file generated by OrangeCD 5.1
#
# Track frame offsets:
#	150
#	11614
#	22476
#	33101
#	44621
#	58314
#	70483
#	82274
#	95039
#	106599
#	119661
#	133146
#	144427
#	157076
#	168387
#	181884
#	193436
#	206302
#	218187
#	232247
#	244328
#	255858
#	267331
#	280654
#	293401
#
# Disc length: 4072 seconds
#
# Revision: 0
# Processed by: cddbd v1.4PL0 Copyright (c) Steve Scherf et al.
# Submitted via: OrangeCD 5.1
#
DISCID=860fe619
DTITLE=Milton, Roy - Blowin' With Roy
DYEAR=1900
DGENRE=Jump Blues
TTITLE0=Coquette
TTITLE1=The Song Is Ended
TTITLE2=Them There Eyes
TTITLE3=When I Grow Too Old To Dream
TTITLE4=What's The Use?
TTITLE5=Train Blues
TTITLE6=L.A. Hop
TTITLE7=Blue Skies
TTITLE8=If You Don't Know
TTITLE9=Along The Navajo Trail
TTITLE10=You Mean So Much To Me
TTITLE11=New Year's Resolution
TTITLE12=I've Had My Moments
TTITLE13=Old Man River
TTITLE14=Everything I Do Is Wrong
TTITLE15=There Is Something Missing
TTITLE16=My Sweetheart
TTITLE17=Believe Me Baby
TTITLE18=Blowin' With Roy
TTITLE19=Thelma Lou
TTITLE20=Sad Feeling
TTITLE21=Practice What You Preach
TTITLE22=If You Love Me, Baby
TTITLE23=Blues Ain't News
TTITLE24=Cool Down
EXTD=
EXTT0=
EXTT1=
EXTT2=
EXTT3=
EXTT4=
EXTT5=
EXTT6=
EXTT7=
EXTT8=
EXTT9=
EXTT10=
EXTT11=
EXTT12=
EXTT13=
EXTT14=
EXTT15=
EXTT16=
EXTT17=
EXTT18=
EXTT19=
EXTT20=
EXTT21=
EXTT22=
EXTT23=
EXTT24=
PLAYORDER=
